HIERARCHY
ROOT Hips
{
	OFFSET 0.00 0.00 0.00
	CHANNELS 6 Xposition Yposition Zposition Xrotation Yrotation Zrotation
	JOINT Spine
	{
		OFFSET 0.00000 5.89385 0.00000
		CHANNELS 3 Xrotation Yrotation Zrotation
		JOINT Head
		{
			OFFSET 0.00000 16.44715 0.00000
			CHANNELS 3 Xrotation Yrotation Zrotation
			End Site
			{
				OFFSET 0.00000 4.52755 0.00000
			}
		}
		JOINT LeftShoulder
		{
			OFFSET 0.00000 10.90038 0.00000
			CHANNELS 3 Xrotation Yrotation Zrotation
			JOINT LeftArm
			{
				OFFSET 8.21946 0.00000 0.00000
				CHANNELS 3 Xrotation Yrotation Zrotation
				JOINT LeftForeArm
				{
					OFFSET 11.09494 0.00000 0.00000
					CHANNELS 3 Yrotation Zrotation Xrotation
					JOINT LeftHand
					{
						OFFSET 9.10388 0.00000 0.00000
						CHANNELS 3 Xrotation Yrotation Zrotation
						JOINT LeftHandThumb1
						{
							OFFSET 0.00000 0.00000 0.00000
							CHANNELS 3 Xrotation Zrotation Yrotation
							End Site
							{
								OFFSET 0.00000 0.00000 3.93700
							}
						}
						End Site
						{
							OFFSET 3.93700 0.00000 0.00000
						}
					}
				}
			}
		}
		JOINT RightShoulder
		{
			OFFSET 0.00000 10.90038 0.00000
			CHANNELS 3 Xrotation Yrotation Zrotation
			JOINT RightArm
			{
				OFFSET -8.21946 0.00000 0.00000
				CHANNELS 3 Xrotation Yrotation Zrotation
				JOINT RightForeArm
				{
					OFFSET -11.09494 0.00000 0.00000
					CHANNELS 3 Yrotation Zrotation Xrotation
					JOINT RightHand
					{
						OFFSET -9.10388 0.00000 0.00000
						CHANNELS 3 Xrotation Yrotation Zrotation
						JOINT RightHandThumb1
						{
							OFFSET 0.00000 0.00000 0.00000
							CHANNELS 3 Xrotation Zrotation Yrotation
							End Site
							{
								OFFSET 0.00000 0.00000 3.93700
							}
						}
						End Site
						{
							OFFSET -3.93700 0.00000 0.00000
						}
					}
				}
			}
		}
	}
	JOINT LeftUpLeg
	{
		OFFSET 3.69794 0.00000 0.00000
		CHANNELS 3 Xrotation Yrotation Zrotation
		JOINT LeftLeg
		{
			OFFSET 0.00000 -16.18147 0.00000
			CHANNELS 3 Xrotation Yrotation Zrotation
			JOINT LeftFoot
			{
				OFFSET 0.00000 -16.50139 0.00000
				CHANNELS 3 Xrotation Yrotation Zrotation
				JOINT LeftToeBase
				{
					OFFSET 0.00000 -1.65857 6.18989
					CHANNELS 3 Xrotation Yrotation Zrotation
					End Site
					{
						OFFSET 0.00000 0.00000 2.95275
					}
				}
			}
		}
	}
	JOINT RightUpLeg
	{
		OFFSET -3.69794 0.00000 0.00000
		CHANNELS 3 Xrotation Yrotation Zrotation
		JOINT RightLeg
		{
			OFFSET 0.00000 -16.18147 0.00000
			CHANNELS 3 Xrotation Yrotation Zrotation
			JOINT RightFoot
			{
				OFFSET 0.00000 -16.50139 0.00000
				CHANNELS 3 Xrotation Yrotation Zrotation
				JOINT RightToeBase
				{
					OFFSET 0.00000 -1.65857 6.18989
					CHANNELS 3 Xrotation Yrotation Zrotation
					End Site
					{
						OFFSET 0.00000 0.00000 2.95275
					}
				}
			}
		}
	}
}
MOTION
Frames: 17
Frame Time: 0.008333
 9.4193 37.0843 1.1472 61.5481 -69.6966 44.6708 -17.8549 1.6307 -9.2158 38.8227 7.6366 20.5147 17.8232 12.9039 14.9945 -16.4210 -25.6278 -80.1096 -18.9857 -0.0000 14.8596 2.1157 13.3016 -9.1220 33.1476 -0.0000 26.2537 58.4506 -18.4664 16.7738 -45.2708 41.2548 77.4012 22.0745 0.0000 -4.9909 -0.4154 1.6230 14.3597 32.8623 0.0000 -24.3270 -27.7428 10.3582 12.0578 17.1241 -0.0000 0.0000 -12.4628 7.2366 -0.5394 7.2954 0.0000 0.0000 -79.7142 -5.2304 -8.8793 71.9536 0.0000 0.0000 31.5072 -13.6906 30.1265 9.1765 -0.0000 -0.0000
 9.4299 37.0775 1.1681 61.9034 -69.7246 45.1273 -17.7745 1.6027 -9.0311 38.8089 7.5375 20.4478 17.7937 12.9185 15.0898 -16.4764 -25.5695 -80.1965 -18.8395 -0.0000 14.8976 2.1431 13.3053 -9.2358 33.1476 -0.0000 26.2537 58.4966 -18.4016 16.7553 -45.1548 41.2569 77.4310 22.1513 0.0000 -4.8099 -0.4313 1.6990 14.2463 32.8623 0.0000 -24.3270 -27.7132 10.3179 11.8861 17.0803 -0.0000 0.0000 -12.4951 7.4903 -0.2755 7.0396 0.0000 -0.0000 -79.8274 -5.2518 -8.9993 71.9473 0.0000 -0.0000 30.2297 -14.2954 29.2092 8.0706 -0.0000 0.0000
 9.4411 37.0694 1.1914 62.3004 -69.7388 45.6457 -17.7157 1.5871 -8.8847 38.7796 7.4692 20.4229 17.8214 12.9654 15.1790 -16.5410 -25.5336 -80.2845 -18.7987 -0.0000 14.7693 2.1221 13.3833 -9.0951 33.1476 -0.0000 26.2537 58.3075 -18.4271 16.6769 -44.8459 41.3782 77.4688 22.1301 0.0000 -4.6486 -0.4487 1.7705 14.2235 32.8623 0.0000 -24.3270 -27.6900 10.2056 11.6697 17.0545 -0.0000 -0.0000 -12.5251 7.8219 0.0378 6.7041 0.0000 0.0000 -79.9445 -5.2515 -9.1550 71.9026 0.0000 -0.0000 28.5677 -15.1340 28.3132 7.2717 0.0000 -0.0000
 9.4528 37.0590 1.2195 62.8051 -69.7832 46.3070 -17.6619 1.6094 -8.7518 38.7415 7.4232 20.3703 17.7799 13.0009 15.2662 -16.4671 -25.5261 -80.3245 -18.8613 -0.0000 14.6752 2.1312 13.3750 -9.1390 33.1476 -0.0000 26.2537 58.3362 -18.3834 16.6777 -44.7447 41.5238 77.4674 22.1103 0.0000 -4.4284 -0.4577 1.8368 13.9944 32.8623 0.0000 -24.3270 -27.6578 10.1150 11.4195 17.0380 0.0000 0.0000 -12.5620 8.1670 0.4003 6.4440 0.0000 -0.0000 -80.0523 -5.1922 -9.2918 71.8244 -0.0000 0.0000 26.6296 -16.1103 27.3020 6.6904 0.0000 -0.0000
 9.4634 37.0472 1.2529 63.4118 -69.8553 47.0996 -17.6276 1.6825 -8.6306 38.7287 7.4016 20.2933 17.9206 13.0656 15.2836 -16.5085 -25.5174 -80.3138 -18.9775 -0.0000 14.6117 2.1418 13.3037 -9.2313 33.1476 -0.0000 26.2537 58.4025 -18.3299 16.6752 -44.7126 41.6700 77.4771 22.0436 0.0000 -4.0926 -0.4558 1.8480 13.8589 32.8623 0.0000 -24.3270 -27.6031 9.9471 11.1296 17.0488 0.0000 -0.0000 -12.6067 8.5973 0.7776 6.2304 0.0000 -0.0000 -80.1454 -5.1312 -9.4265 71.6869 0.0000 -0.0000 24.5317 -17.0613 26.0821 5.8500 -0.0000 0.0000
 9.4794 37.0321 1.2897 64.1709 -69.8710 48.0739 -17.6713 1.7773 -8.5312 38.7138 7.3477 20.1657 17.9246 13.0921 15.3435 -16.3565 -25.6091 -80.2867 -19.1709 -0.0000 14.4058 2.1567 13.2424 -9.3360 33.1476 -0.0000 26.2537 58.3669 -18.3577 16.6415 -44.6026 41.8287 77.5146 21.9696 0.0000 -3.5012 -0.4482 1.8544 13.5910 32.8623 0.0000 -24.3270 -27.6437 9.7563 10.7975 17.1156 0.0000 0.0000 -12.6624 9.0268 1.1296 6.1540 -0.0000 -0.0000 -80.3226 -5.0303 -9.5850 71.5036 0.0000 0.0000 22.4066 -18.0306 24.8319 5.0001 0.0000 -0.0000
 9.4941 37.0145 1.3318 64.9796 -69.9503 49.1221 -17.6788 1.9185 -8.4328 38.7049 7.3209 20.0391 17.9803 13.1487 15.3662 -16.2451 -25.7472 -80.2372 -19.3912 -0.0000 14.2529 2.1725 13.2013 -9.4313 33.1476 -0.0000 26.2537 58.3303 -18.3699 16.5873 -44.5602 41.9158 77.5854 21.8403 0.0000 -2.7744 -0.4469 1.8885 13.3150 32.8623 0.0000 -24.3270 -27.6284 9.5486 10.4525 17.1974 -0.0000 0.0000 -12.7331 9.4736 1.4889 6.1409 -0.0000 0.0000 -80.4304 -4.8543 -9.7137 71.2601 -0.0000 -0.0000 20.3661 -18.8159 23.7541 3.7944 0.0000 -0.0000
 9.5083 36.9940 1.3766 65.8165 -70.0335 50.2015 -17.6860 2.0658 -8.3280 38.6902 7.2911 19.8939 18.0564 13.2011 15.3733 -16.1044 -25.8919 -80.1599 -19.6626 -0.0000 14.1493 2.1871 13.0196 -9.6212 33.1476 -0.0000 26.2537 58.3489 -18.4137 16.5870 -44.5705 42.1093 77.6252 21.7202 0.0000 -1.9722 -0.4195 1.8140 13.0228 32.8623 0.0000 -24.3270 -27.6385 9.3302 10.1219 17.3389 -0.0000 0.0000 -12.8316 9.9083 1.7710 6.1924 -0.0000 0.0000 -80.5156 -4.6713 -9.8487 70.9342 -0.0000 -0.0000 18.4180 -19.4668 22.5370 2.7908 0.0000 -0.0000
 9.5212 36.9730 1.4211 66.7061 -70.1342 51.3256 -17.6877 2.2274 -8.2034 38.6824 7.2598 19.7214 18.1086 13.2334 15.3564 -15.8956 -26.0198 -80.0314 -19.9755 -0.0000 14.2274 2.2361 12.8294 -9.9735 33.1476 -0.0000 26.2537 58.3481 -18.4339 16.5662 -44.5865 42.2062 77.6698 21.6051 0.0000 -1.0177 -0.3607 1.6336 12.4534 32.8623 0.0000 -24.3270 -27.6824 9.1754 9.8406 17.5341 0.0000 -0.0000 -12.9489 10.3207 1.9270 6.1611 0.0000 0.0000 -80.5462 -4.4738 -9.9533 70.5100 0.0000 0.0000 16.6535 -20.0478 21.2974 1.3828 -0.0000 0.0000
 9.5322 36.9486 1.4721 67.6187 -70.2845 52.5004 -17.6482 2.3934 -8.0812 38.6706 7.2509 19.5164 18.1775 13.3157 15.2963 -15.7068 -26.1781 -79.9023 -20.2992 -0.0000 14.2433 2.2516 12.7218 -10.1229 33.1476 -0.0000 26.2537 58.3266 -18.4673 16.5203 -44.6232 42.3387 77.7163 21.4584 0.0000 -0.1368 -0.3360 1.5730 12.0572 32.8623 0.0000 -24.3270 -27.7092 9.1607 9.5637 17.7624 -0.0000 0.0000 -13.0799 10.6601 2.0719 6.0050 0.0000 0.0000 -80.5112 -4.2582 -10.0428 70.0325 -0.0000 -0.0000 15.0875 -20.4266 20.0454 -0.1638 -0.0000 -0.0000
 9.5409 36.9243 1.5252 68.5392 -70.4907 53.7114 -17.5454 2.6353 -7.9959 38.6551 7.2008 19.3777 18.2608 13.3395 15.2627 -15.5291 -26.2864 -79.7693 -20.6091 -0.0000 14.3299 2.2738 12.5455 -10.3590 33.1476 -0.0000 26.2537 58.3168 -18.4861 16.5347 -44.6737 42.4230 77.7438 21.3097 0.0000 0.7924 -0.2922 1.4137 11.6781 32.8623 0.0000 -24.3270 -27.6924 9.3550 9.3041 17.9625 -0.0000 -0.0000 -13.1864 10.8260 2.1848 5.9427 0.0000 -0.0000 -80.3937 -4.0204 -10.1078 69.4606 -0.0000 0.0000 13.8961 -20.8364 19.1255 -1.9631 -0.0000 -0.0000
 9.5521 36.8996 1.5779 69.5763 -70.6794 55.0633 -17.4668 2.8549 -7.9532 38.6095 7.2347 19.2784 18.2894 13.3985 15.2500 -15.3119 -26.3335 -79.6715 -20.9275 -0.0000 14.3658 2.2882 12.5166 -10.4467 33.1476 -0.0000 26.2537 58.2661 -18.4818 16.5106 -44.7162 42.4853 77.7817 21.1722 0.0000 1.6379 -0.2268 1.1559 11.1027 32.8623 0.0000 -24.3270 -27.6932 9.6104 9.0306 18.1403 -0.0000 0.0000 -13.2922 10.9709 2.2700 6.0286 0.0000 0.0000 -80.2668 -3.7328 -10.1446 68.8151 -0.0000 0.0000 13.0935 -21.2078 18.5441 -3.6533 0.0000 0.0000
 9.5603 36.8741 1.6307 70.4257 -70.8699 56.1953 -17.3443 3.0077 -7.8802 38.5721 7.2534 19.1742 18.3452 13.4398 15.2410 -15.1357 -26.2935 -79.6115 -21.2181 -0.0000 14.4816 2.3081 12.4486 -10.5906 33.1476 -0.0000 26.2537 58.2163 -18.4656 16.4965 -44.7472 42.5748 77.7657 21.0161 0.0000 2.3272 -0.1776 0.9438 10.6589 32.8623 0.0000 -24.3270 -27.6696 9.8956 8.7887 18.3202 0.0000 0.0000 -13.4131 11.0853 2.3405 6.0327 0.0000 -0.0000 -80.0334 -3.4564 -10.2087 68.1029 0.0000 0.0000 12.6147 -21.5289 18.2791 -4.5023 0.0000 -0.0000
 9.5653 36.8499 1.6822 71.3281 -71.0759 57.3817 -17.2188 3.1526 -7.8236 38.5371 7.2755 19.1056 18.3517 13.5032 15.2327 -14.9255 -26.2695 -79.5491 -21.4425 -0.0000 14.6093 2.2992 12.3651 -10.6191 33.1476 -0.0000 26.2537 58.1692 -18.4174 16.5066 -44.8124 42.5842 77.7407 20.8374 0.0000 2.9954 -0.1389 0.7538 10.4386 32.8623 0.0000 -24.3270 -27.6200 10.2643 8.5601 18.4676 -0.0000 0.0000 -13.5301 11.1437 2.4490 6.0751 -0.0000 0.0000 -79.7342 -3.1542 -10.2401 67.3191 0.0000 0.0000 12.4249 -21.7830 18.4489 -5.0538 -0.0000 0.0000
 9.5744 36.8280 1.7283 72.1521 -71.1871 58.4053 -17.1663 3.1550 -7.6845 38.5177 7.3206 18.9982 18.4039 13.5934 15.2120 -14.7545 -26.2008 -79.5241 -21.6559 -0.0000 14.5840 2.2812 12.3001 -10.5917 33.1476 -0.0000 26.2537 58.1311 -18.4102 16.4768 -44.8699 42.7339 77.7105 20.6624 0.0000 3.3677 -0.0856 0.4783 10.1439 32.8623 0.0000 -24.3270 -27.6652 10.4589 8.3726 18.6495 -0.0000 -0.0000 -13.6544 11.2527 2.5869 6.0869 -0.0000 -0.0000 -79.4155 -2.9150 -10.2921 66.4356 0.0000 -0.0000 12.3715 -22.0052 18.8680 -5.0532 -0.0000 -0.0000
 9.5820 36.8053 1.7743 73.0630 -71.3185 59.5306 -17.1078 3.1924 -7.5711 38.5031 7.3067 18.8943 18.4107 13.6548 15.2223 -14.5710 -26.0450 -79.5147 -21.8014 -0.0000 14.5315 2.3250 12.3170 -10.7764 33.1476 -0.0000 26.2537 58.0819 -18.4152 16.4772 -44.9604 42.8088 77.7030 20.4379 0.0000 3.6819 -0.0702 0.3977 10.0100 32.8623 0.0000 -24.3270 -27.6851 10.6756 8.1690 18.8143 -0.0000 0.0000 -13.7814 11.3903 2.8181 6.1129 -0.0000 -0.0000 -79.0488 -2.6543 -10.2911 65.4836 -0.0000 -0.0000 12.3918 -22.2397 19.1741 -4.8909 -0.0000 -0.0000
 9.5850 36.7825 1.8222 73.9389 -71.5301 60.6511 -16.9498 3.2723 -7.4974 38.4572 7.3377 18.8677 18.4431 13.7325 15.2483 -14.4335 -26.0149 -79.5330 -21.8888 -0.0000 14.4605 2.1661 12.3279 -10.0463 33.1476 -0.0000 26.2537 57.9870 -18.3940 16.4817 -45.0137 42.7986 77.6829 20.2313 0.0000 3.9970 -0.0288 0.1642 9.9429 32.8623 0.0000 -24.3270 -27.5661 10.8200 7.9305 18.9302 -0.0000 0.0000 -13.9069 11.5912 3.0411 6.0653 -0.0000 -0.0000 -78.5514 -2.3073 -10.2499 64.5086 -0.0000 -0.0000 12.3595 -22.4211 19.5589 -4.3489 -0.0000 0.0000
